# xmcd CD database file
#
# Track frame offsets:
#	150
#	15257
#	30460
#	43825
#	59970
#	78800
#	95135
#	111062
#	123420
#	144017
#
# Disc length: 2097 seconds
#
# Revision: 0
# Processed by: cddbd v1.5.1PL0 Copyright (c) Steve Scherf et al.
# Submitted via: CDex 1.51
#
DISCID=7b082f0a
DTITLE=Practical Blues - Spiral Dance
DYEAR=1996
DGENRE=Blues
TTITLE0=Never Alone
TTITLE1=Borealis Shuffle
TTITLE2=Run Away Angel
TTITLE3=The Dragon in Me
TTITLE4=You're Not the Same
TTITLE5=Big Money
TTITLE6=When I Grow Up (I wanna be just like you)
TTITLE7=House of Change
TTITLE8=This is a She Bop
TTITLE9=I Got it All
EXTD=YEAR: 1996
EXTT0=
EXTT1=
EXTT2=
EXTT3=
EXTT4=
EXTT5=
EXTT6=
EXTT7=
EXTT8=
EXTT9=
PLAYORDER=
